<svg xmlns="http://www.w3.org/2000/svg" width="120" height="25" viewBox="0 0 120 25" fill="none">
  <path d="M36.0547 19.2497V6.64993H38.3582V17.0897H43.9427V19.2497H36.0547Z" fill="black" fill-opacity="0.87"/>
  <path d="M48.9161 19.5017C48.0552 19.5017 47.2815 19.3217 46.5951 18.9617C45.9086 18.6017 45.3677 18.0797 44.9721 17.3957C44.5766 16.7118 44.3788 15.8898 44.3788 14.9298V14.6418C44.3788 13.6818 44.5766 12.8598 44.9721 12.1758C45.3677 11.4918 45.9086 10.9698 46.5951 10.6098C47.2815 10.2499 48.0552 10.0699 48.9161 10.0699C49.7771 10.0699 50.5508 10.2499 51.2372 10.6098C51.9236 10.9698 52.4645 11.4918 52.8602 12.1758C53.2557 12.8598 53.4535 13.6818 53.4535 14.6418V14.9298C53.4535 15.8898 53.2557 16.7118 52.8602 17.3957C52.4645 18.0797 51.9236 18.6017 51.2372 18.9617C50.5508 19.3217 49.7771 19.5017 48.9161 19.5017ZM48.9161 17.4857C49.5909 17.4857 50.1494 17.2637 50.5915 16.8198C51.0335 16.3637 51.2546 15.7157 51.2546 14.8758V14.6958C51.2546 13.8558 51.0335 13.2138 50.5915 12.7698C50.161 12.3138 49.6025 12.0858 48.9161 12.0858C48.2414 12.0858 47.6829 12.3138 47.2408 12.7698C46.7987 13.2138 46.5776 13.8558 46.5776 14.6958V14.8758C46.5776 15.7157 46.7987 16.3637 47.2408 16.8198C47.6829 17.2637 48.2414 17.4857 48.9161 17.4857Z" fill="black" fill-opacity="0.87"/>
  <path d="M54.2791 14.8218V14.5338C54.2791 13.5978 54.4594 12.7998 54.82 12.1398C55.1807 11.4679 55.6577 10.9579 56.251 10.6098C56.856 10.2499 57.5134 10.0699 58.2231 10.0699C59.0142 10.0699 59.6133 10.2138 60.0205 10.5018C60.4278 10.7898 60.7244 11.0898 60.9105 11.4018H61.2247V10.3218H63.3887V20.8336C63.3887 21.4457 63.2142 21.9316 62.8651 22.2916C62.5161 22.6636 62.0508 22.8496 61.469 22.8496H55.6752V20.8697H60.7011C61.0269 20.8697 61.1898 20.6897 61.1898 20.3296V18.0077H60.8757C60.7594 18.1997 60.5964 18.3977 60.387 18.6017C60.1776 18.7937 59.8984 18.9557 59.5494 19.0877C59.2003 19.2197 58.7583 19.2857 58.2231 19.2857C57.5134 19.2857 56.856 19.1117 56.251 18.7637C55.6577 18.4037 55.1807 17.8937 54.82 17.2337C54.4594 16.5618 54.2791 15.7577 54.2791 14.8218ZM58.8513 17.3057C59.5261 17.3057 60.0904 17.0837 60.5441 16.6397C60.9979 16.1957 61.2247 15.5718 61.2247 14.7678V14.5878C61.2247 13.7718 60.9979 13.1478 60.5441 12.7158C60.102 12.2718 59.5377 12.0498 58.8513 12.0498C58.1765 12.0498 57.6123 12.2718 57.1585 12.7158C56.7048 13.1478 56.4779 13.7718 56.4779 14.5878V14.7678C56.4779 15.5718 56.7048 16.1957 57.1585 16.6397C57.6123 17.0837 58.1765 17.3057 58.8513 17.3057Z" fill="black" fill-opacity="0.87"/>
  <path d="M69.1597 19.5017C68.2988 19.5017 67.5251 19.3217 66.8386 18.9617C66.1522 18.6017 65.6113 18.0797 65.2157 17.3957C64.8202 16.7118 64.6223 15.8898 64.6223 14.9298V14.6418C64.6223 13.6818 64.8202 12.8598 65.2157 12.1758C65.6113 11.4918 66.1522 10.9698 66.8386 10.6098C67.5251 10.2499 68.2988 10.0699 69.1597 10.0699C70.0207 10.0699 70.7943 10.2499 71.4808 10.6098C72.1672 10.9698 72.7081 11.4918 73.1038 12.1758C73.4993 12.8598 73.6971 13.6818 73.6971 14.6418V14.9298C73.6971 15.8898 73.4993 16.7118 73.1038 17.3957C72.7081 18.0797 72.1672 18.6017 71.4808 18.9617C70.7943 19.3217 70.0207 19.5017 69.1597 19.5017ZM69.1597 17.4857C69.8345 17.4857 70.393 17.2637 70.835 16.8198C71.2771 16.3637 71.4982 15.7157 71.4982 14.8758V14.6958C71.4982 13.8558 71.2771 13.2138 70.835 12.7698C70.4046 12.3138 69.8461 12.0858 69.1597 12.0858C68.4849 12.0858 67.9265 12.3138 67.4844 12.7698C67.0423 13.2138 66.8212 13.8558 66.8212 14.6958V14.8758C66.8212 15.7157 67.0423 16.3637 67.4844 16.8198C67.9265 17.2637 68.4849 17.4857 69.1597 17.4857Z" fill="black" fill-opacity="0.87"/>
  <path d="M74.9414 19.2497V10.3219H77.1405V19.2497H74.9414ZM76.041 9.27793C75.645 9.27793 75.3082 9.14588 75.0285 8.88186C74.7611 8.61792 74.6273 8.2699 74.6273 7.83792C74.6273 7.40593 74.7611 7.05794 75.0285 6.79394C75.3082 6.52995 75.645 6.39795 76.041 6.39795C76.4482 6.39795 76.7857 6.52995 77.0527 6.79394C77.3205 7.05794 77.4548 7.40593 77.4548 7.83792C77.4548 8.2699 77.3205 8.61792 77.0527 8.88186C76.7857 9.14588 76.4482 9.27793 76.041 9.27793Z" fill="black" fill-opacity="0.87"/>
  <path d="M78.792 22.8496V10.3218H80.9557V11.4018H81.27C81.4672 11.0539 81.7755 10.7478 82.1947 10.4838C82.6132 10.2079 83.2125 10.0699 83.9925 10.0699C84.69 10.0699 85.3357 10.2499 85.929 10.6098C86.523 10.9579 87 11.4738 87.36 12.1578C87.7207 12.8418 87.9015 13.6698 87.9015 14.6418V14.9298C87.9015 15.9018 87.7207 16.7297 87.36 17.4137C87 18.0977 86.523 18.6197 85.929 18.9797C85.3357 19.3276 84.69 19.5017 83.9925 19.5017C83.469 19.5017 83.0265 19.4357 82.6657 19.3037C82.317 19.1837 82.032 19.0277 81.8107 18.8357C81.6015 18.6317 81.4327 18.4277 81.3045 18.2237H80.9902V22.8496H78.792ZM83.3287 17.5217C84.0157 17.5217 84.5797 17.2997 85.0215 16.8557C85.4752 16.3997 85.7025 15.7398 85.7025 14.8758V14.6958C85.7025 13.8318 85.4752 13.1778 85.0215 12.7338C84.5677 12.2778 84.0037 12.0498 83.3287 12.0498C82.6545 12.0498 82.0897 12.2778 81.636 12.7338C81.1822 13.1778 80.9557 13.8318 80.9557 14.6958V14.8758C80.9557 15.7398 81.1822 16.3997 81.636 16.8557C82.0897 17.2997 82.6545 17.5217 83.3287 17.5217Z" fill="black" fill-opacity="0.87"/>
  <path d="M92.73 19.5017C91.6012 19.5017 90.6765 19.2497 89.955 18.7457C89.2342 18.2417 88.7977 17.5217 88.6462 16.5858L90.6705 16.0457C90.7522 16.4658 90.8857 16.7957 91.0725 17.0357C91.2697 17.2757 91.5082 17.4497 91.788 17.5577C92.0782 17.6537 92.3925 17.7017 92.73 17.7017C93.2422 17.7017 93.6202 17.6117 93.864 17.4317C94.1085 17.2397 94.2307 17.0057 94.2307 16.7297C94.2307 16.4537 94.1145 16.2438 93.882 16.0997C93.6487 15.9438 93.2767 15.8178 92.7652 15.7218L92.2762 15.6317C91.671 15.5117 91.119 15.3498 90.6187 15.1458C90.1177 14.9298 89.7165 14.6358 89.4142 14.2638C89.112 13.8918 88.9605 13.4118 88.9605 12.8238C88.9605 11.9358 89.2747 11.2578 89.9032 10.7898C90.531 10.3098 91.3575 10.0699 92.3812 10.0699C93.3465 10.0699 94.1497 10.2918 94.7895 10.7358C95.4292 11.1799 95.8477 11.7618 96.0457 12.4819L94.0042 13.1298C93.9112 12.6738 93.7192 12.3498 93.4282 12.1578C93.1485 11.9658 92.7997 11.8698 92.3812 11.8698C91.962 11.8698 91.6425 11.9479 91.4212 12.1038C91.2 12.2478 91.0897 12.4518 91.0897 12.7158C91.0897 13.0038 91.206 13.2198 91.4385 13.3638C91.671 13.4958 91.9852 13.5978 92.3812 13.6698L92.8695 13.7598C93.5212 13.8798 94.1085 14.0418 94.632 14.2458C95.1675 14.4378 95.586 14.7198 95.889 15.0918C96.2025 15.4518 96.36 15.9438 96.36 16.5677C96.36 17.5037 96.0285 18.2297 95.3655 18.7457C94.7137 19.2497 93.8355 19.5017 92.73 19.5017Z" fill="black" fill-opacity="0.87"/>
  <path d="M100.8 19.3937C100.125 19.3937 99.5318 19.2377 99.0195 18.9257C98.5193 18.6017 98.13 18.1577 97.8503 17.5937C97.5713 17.0297 97.4318 16.3818 97.4318 15.6497V10.3218H99.6308V15.4697C99.6308 16.1417 99.7875 16.6457 100.102 16.9817C100.427 17.3177 100.887 17.4857 101.48 17.4857C102.155 17.4857 102.679 17.2578 103.051 16.8017C103.424 16.3337 103.61 15.6857 103.61 14.8578V10.3218H105.809V19.2497H103.644V18.0797H103.331C103.191 18.3797 102.929 18.6737 102.545 18.9617C102.161 19.2497 101.579 19.3937 100.8 19.3937Z" fill="black" fill-opacity="0.87"/>
  <path d="M107.47 19.2496V10.3218H109.633V11.2938H109.948C110.099 10.9938 110.35 10.7358 110.698 10.5198C111.047 10.2918 111.507 10.1779 112.077 10.1779C112.693 10.1779 113.188 10.3039 113.56 10.5558C113.932 10.7959 114.217 11.1138 114.415 11.5099H114.73C114.928 11.1259 115.207 10.8078 115.567 10.5558C115.928 10.3039 116.44 10.1779 117.103 10.1779C117.638 10.1779 118.121 10.2978 118.552 10.5379C118.993 10.7658 119.343 11.1198 119.599 11.5998C119.866 12.0678 120 12.6618 120 13.3818V19.2496H117.801V13.5438C117.801 13.0518 117.679 12.6858 117.435 12.4458C117.19 12.1938 116.847 12.0678 116.405 12.0678C115.905 12.0678 115.515 12.2358 115.236 12.5718C114.968 12.8958 114.835 13.3638 114.835 13.9757V19.2496H112.636V13.5438C112.636 13.0518 112.513 12.6858 112.269 12.4458C112.024 12.1938 111.682 12.0678 111.239 12.0678C110.739 12.0678 110.349 12.2358 110.07 12.5718C109.802 12.8958 109.669 13.3638 109.669 13.9757V19.2496H107.47Z" fill="black" fill-opacity="0.87"/>
  <path d="M29.0857 12.5C29.0857 9.31744 27.8599 6.26516 25.678 4.01472C23.4961 1.76429 20.5368 0.5 17.4512 0.5C14.3655 0.5 11.4062 1.76429 9.22434 4.01472C7.04243 6.26516 5.81665 9.31744 5.81665 12.5H9.45249C10.6573 12.5 11.5969 11.4587 12.0382 10.3023C12.3279 9.54317 12.7676 8.8455 13.3377 8.25736C14.4287 7.13215 15.9083 6.50001 17.4512 6.50001C18.994 6.50001 20.4737 7.13215 21.5646 8.25736C22.6556 9.38258 23.2684 10.9087 23.2684 12.5H29.0857Z" fill="url(#paint0_linear_8614_10682)"/>
  <path d="M22.3833 17.0922C22.968 15.6363 23.269 14.0759 23.269 12.5H29.0856C29.0856 19.1274 23.8766 24.5 17.4511 24.5C16.4448 24.5 15.4683 24.3682 14.5371 24.1206C15.064 23.9805 15.5819 23.8022 16.0868 23.5866C17.4983 22.9835 18.7809 22.0996 19.8613 20.9853C20.9417 19.871 21.7987 18.5481 22.3833 17.0922Z" fill="#FBCF8E"/>
  <path d="M0 12.5C-2.18575e-07 14.0759 0.300935 15.6363 0.885623 17.0922C1.47031 18.5481 2.3273 19.871 3.40767 20.9853C4.48803 22.0996 5.77061 22.9835 7.18217 23.5866C8.59373 24.1896 10.1066 24.5 11.6345 24.5C13.1623 24.5 14.6753 24.1896 16.0868 23.5866C17.4984 22.9835 18.781 22.0996 19.8614 20.9853C20.9417 19.871 21.7987 18.5481 22.3834 17.0922C22.9681 15.6363 23.2691 14.0759 23.2691 12.5H19.6332C18.4284 12.5 17.4888 13.5413 17.0475 14.6976C17.035 14.7305 17.0221 14.7633 17.0089 14.7961C16.7166 15.5241 16.2881 16.1855 15.7479 16.7426C15.2078 17.2998 14.5664 17.7418 13.8607 18.0433C13.1549 18.3448 12.3985 18.5 11.6345 18.5C10.8706 18.5 10.1141 18.3448 9.40837 18.0433C8.70255 17.7418 8.0613 17.2998 7.52108 16.7426C6.9809 16.1855 6.55241 15.5241 6.26007 14.7961C5.96772 14.0681 5.81726 13.2879 5.81726 12.5H0Z" fill="url(#paint1_linear_8614_10682)"/>
  <path d="M0.0012207 12.5C0.0012207 5.87257 5.21015 0.5 11.6357 0.5C12.6417 0.5 13.6179 0.631696 14.5491 0.879295C12.5511 1.41015 10.7081 2.48446 9.22436 4.01473C7.04247 6.26515 5.81671 9.31744 5.81671 12.5H0.0012207Z" fill="#73E5E2"/>
  <defs>
    <linearGradient id="paint0_linear_8614_10682" x1="29.0857" y1="6.50001" x2="5.81665" y2="6.50001" gradientUnits="userSpaceOnUse">
      <stop stop-color="#73E5E2"/>
      <stop offset="1" stop-color="#394F87"/>
    </linearGradient>
    <linearGradient id="paint1_linear_8614_10682" x1="7.6284e-07" y1="18.5" x2="23.2691" y2="18.5" gradientUnits="userSpaceOnUse">
      <stop stop-color="#FBDC8E"/>
      <stop offset="1" stop-color="#FB958E"/>
    </linearGradient>
  </defs>
</svg>